<svg width="25" height="24" viewBox="0 0 25 24" fill="none" xmlns="http://www.w3.org/2000/svg">
<path d="M10.3332 20C9.80281 20 9.29411 19.7893 8.91903 19.4142C8.54396 19.0391 8.33325 18.5304 8.33325 18C8.33325 17.4696 8.54396 16.9609 8.91903 16.5858C9.29411 16.2107 9.80281 16 10.3332 16C10.8637 16 11.3724 16.2107 11.7475 16.5858C12.1225 16.9609 12.3332 17.4696 12.3332 18C12.3332 18.5304 12.1225 19.0391 11.7475 19.4142C11.3724 19.7893 10.8637 20 10.3332 20ZM17.3332 20C16.8028 20 16.2941 19.7893 15.919 19.4142C15.544 19.0391 15.3332 18.5304 15.3332 18C15.3332 17.4696 15.544 16.9609 15.919 16.5858C16.2941 16.2107 16.8028 16 17.3332 16C17.8637 16 18.3724 16.2107 18.7475 16.5858C19.1225 16.9609 19.3332 17.4696 19.3332 18C19.3332 18.5304 19.1225 19.0391 18.7475 19.4142C18.3724 19.7893 17.8637 20 17.3332 20ZM4.29525 5.923C4.04561 5.91495 3.80889 5.81012 3.63514 5.63068C3.4614 5.45125 3.36426 5.21127 3.36426 4.9615C3.36426 4.71173 3.4614 4.47175 3.63514 4.29232C3.80889 4.11288 4.04561 4.00805 4.29525 4H5.44625C6.34825 4 7.12825 4.626 7.32425 5.506L8.57725 11.148C8.77325 12.028 9.55325 12.654 10.4552 12.654H17.9672L19.4092 6.884H10.0642C9.81696 6.87272 9.58354 6.76654 9.41253 6.58755C9.24152 6.40857 9.1461 6.17055 9.1461 5.923C9.1461 5.67545 9.24152 5.43743 9.41253 5.25845C9.58354 5.07946 9.81696 4.97328 10.0642 4.962H19.4092C19.7016 4.96191 19.9901 5.02848 20.2528 5.15663C20.5156 5.28479 20.7456 5.47116 20.9255 5.70158C21.1055 5.93201 21.2305 6.20041 21.291 6.4864C21.3516 6.77238 21.3462 7.06842 21.2752 7.352L19.8332 13.12C19.7293 13.5362 19.4892 13.9057 19.151 14.1697C18.8129 14.4337 18.3962 14.5771 17.9672 14.577H10.4552C9.58004 14.5771 8.73097 14.2787 8.04826 13.7311C7.36555 13.1835 6.89003 12.4194 6.70025 11.565L5.44625 5.923H4.29525Z" fill="white"/>
</svg>
